<svg width="104" height="24" viewBox="0 0 104 23.8906" fill="none" xmlns="http://www.w3.org/2000/svg" aria-hidden="true">
<g id="Image (&#228;&#188;&#154;&#231;&#164;&#190;&#229;&#144;&#141;&#227;&#130;&#146;&#229;&#133;&#165;&#227;&#130;&#140;&#227;&#129;&#166;&#227;&#129;&#143;&#227;&#129;&#160;&#227;&#129;&#149;&#227;&#129;&#132;)" clip-path="url(#clip0_13_12)">
<path id="Vector" d="M103.49 15.0933C103.49 15.543 103.462 16.0115 103.406 16.4987H92.5283C92.6035 17.473 92.9127 18.2225 93.4559 18.7472C94.018 19.2531 94.7017 19.5061 95.5076 19.5061C96.7071 19.5061 97.5405 19.0001 98.0091 17.9883H103.125C102.862 19.0189 102.385 19.9464 101.691 20.7709C101.017 21.5953 100.164 22.2417 99.1334 22.7102C98.1026 23.1787 96.9502 23.4129 95.6763 23.4129C94.1396 23.4129 92.7722 23.0849 91.5727 22.4292C90.3733 21.7734 89.4366 20.8364 88.7621 19.6185C88.0875 18.4006 87.7502 16.9765 87.7502 15.3463C87.7502 13.7161 88.0784 12.292 88.7339 11.0741C89.4085 9.85615 90.3452 8.91921 91.5446 8.26342C92.7441 7.60762 94.1213 7.27968 95.6763 7.27968C97.194 7.27968 98.5432 7.5982 99.7236 8.23531C100.904 8.87242 101.822 9.78117 102.478 10.9617C103.153 12.1421 103.49 13.5194 103.49 15.0933ZM98.5713 13.8285C98.5713 13.0041 98.2902 12.3482 97.7281 11.8611C97.1659 11.3739 96.4633 11.1303 95.6201 11.1303C94.8141 11.1303 94.1304 11.3645 93.5683 11.833C93.0251 12.3014 92.6878 12.9666 92.5564 13.8285H98.5713Z" fill="var(--fill-0, #282828)"/>
<path id="Vector_2" d="M85.0421 11.4955H82.4563V23.1879H77.6501V11.4955H75.9075V7.5044H77.6501V7.05469C77.6501 5.1247 78.2031 3.66316 79.3084 2.67005C80.4137 1.65821 82.0347 1.15229 84.1708 1.15229C84.5271 1.15229 84.7892 1.16167 84.9578 1.1804V5.25586C84.0394 5.19965 83.393 5.33081 83.0185 5.64935C82.6439 5.9679 82.4563 6.5394 82.4563 7.36386V7.5044H85.0421V11.4955Z" fill="var(--fill-0, #282828)"/>
<path id="Vector_3" d="M69.8946 5.87425C69.0514 5.87425 68.3581 5.63067 67.8147 5.14348C67.2901 4.63756 67.0277 4.01922 67.0277 3.28845C67.0277 2.53894 67.2901 1.9206 67.8147 1.43341C68.3581 0.92749 69.0514 0.674531 69.8946 0.674531C70.719 0.674531 71.3936 0.92749 71.9185 1.43341C72.4616 1.9206 72.7335 2.53894 72.7335 3.28845C72.7335 4.01922 72.4616 4.63756 71.9185 5.14348C71.3936 5.63067 70.719 5.87425 69.8946 5.87425ZM72.2838 7.50447V23.188H67.4774V7.50447H72.2838Z" fill="var(--fill-0, #282828)"/>
<path id="Vector_4" d="M57.4839 19.4778H63.7798V23.1879H52.6777V3.45706H57.4839V19.4778Z" fill="var(--fill-0, #282828)"/>
<path id="Vector_5" d="M34.4645 19.2249H41.2663V23.1879H29.0961V19.3654L35.6169 11.4674H29.1523V7.5044H41.1258V11.3269L34.4645 19.2249Z" fill="var(--fill-0, #282828)"/>
<path id="Vector_6" d="M22.6897 5.87425C21.8465 5.87425 21.1533 5.63067 20.6098 5.14348C20.0852 4.63756 19.8228 4.01922 19.8228 3.28845C19.8228 2.53894 20.0852 1.9206 20.6098 1.43341C21.1533 0.92749 21.8465 0.674531 22.6897 0.674531C23.5142 0.674531 24.1888 0.92749 24.7134 1.43341C25.2568 1.9206 25.5285 2.53894 25.5285 3.28845C25.5285 4.01922 25.2568 4.63756 24.7134 5.14348C24.1888 5.63067 23.5142 5.87425 22.6897 5.87425ZM25.0788 7.50447V23.188H20.2725V7.50447H25.0788Z" fill="var(--fill-0, #282828)"/>
<path id="Vector_7" d="M12.2853 13.0695C13.4283 13.3131 14.3465 13.8846 15.0398 14.784C15.733 15.6647 16.0797 16.6766 16.0797 17.8195C16.0797 19.4685 15.4988 20.7801 14.3371 21.7545C13.1941 22.7101 11.592 23.1879 9.5309 23.1879H0.340022V3.45706H9.22173C11.2266 3.45706 12.7913 3.91613 13.9155 4.83428C15.0585 5.75243 15.63 6.99849 15.63 8.57245C15.63 9.73423 15.3209 10.6992 14.7025 11.4674C14.1029 12.2357 13.2972 12.7697 12.2853 13.0695ZM5.14625 11.4393H8.29421C9.08119 11.4393 9.68078 11.2707 10.093 10.9334C10.524 10.5774 10.7395 10.0621 10.7395 9.38754C10.7395 8.71298 10.524 8.19772 10.093 7.84168C9.68078 7.48571 9.08119 7.30765 8.29421 7.30765H5.14625V11.4393ZM8.6877 19.3092C9.49338 19.3092 10.1117 19.1312 10.5427 18.7752C10.9924 18.4004 11.2173 17.8664 11.2173 17.1731C11.2173 16.4798 10.983 15.9364 10.5146 15.5429C10.0649 15.1494 9.43716 14.9527 8.63149 14.9527H5.14625V19.3092H8.6877Z" fill="var(--fill-0, #282828)"/>
</g>
<defs>
<clipPath id="clip0_13_12">
<rect width="104" height="23.8906" fill="white"/>
</clipPath>
</defs>
</svg>
