<svg preserveAspectRatio="none" width="100%" height="100%" overflow="visible" style="display: block;" viewBox="0 0 120 26.75" fill="none" xmlns="http://www.w3.org/2000/svg">
<g id="Image (&#228;&#188;&#154;&#231;&#164;&#190;&#229;&#144;&#141;&#227;&#130;&#146;&#229;&#133;&#165;&#227;&#130;&#140;&#227;&#129;&#166;&#227;&#129;&#143;&#227;&#129;&#160;&#227;&#129;&#149;&#227;&#129;&#132;)" clip-path="url(#clip0_13_3)">
<path id="Vector" d="M119.4 16.6337C119.4 17.1525 119.367 17.6929 119.302 18.2549H106.754C106.841 19.379 107.198 20.2437 107.824 20.8489C108.473 21.4325 109.261 21.7243 110.191 21.7243C111.575 21.7243 112.536 21.1407 113.077 19.9734H118.978C118.676 21.1623 118.125 22.2323 117.324 23.1834C116.546 24.1346 115.563 24.8803 114.374 25.4207C113.185 25.9611 111.855 26.2313 110.386 26.2313C108.613 26.2313 107.035 25.8531 105.652 25.0964C104.268 24.3399 103.187 23.2591 102.409 21.854C101.631 20.449 101.242 18.8061 101.242 16.9255C101.242 15.0449 101.621 13.4022 102.377 11.9971C103.155 10.592 104.236 9.51125 105.619 8.75463C107.003 7.9981 108.592 7.61982 110.386 7.61982C112.137 7.61982 113.693 7.98729 115.055 8.7222C116.417 9.45718 117.476 10.5055 118.232 11.8674C119.01 13.2292 119.4 14.818 119.4 16.6337ZM113.725 15.1746C113.725 14.2235 113.401 13.467 112.753 12.9049C112.104 12.3429 111.294 12.0619 110.321 12.0619C109.391 12.0619 108.602 12.3322 107.954 12.8725C107.327 13.4129 106.938 14.1803 106.787 15.1746H113.725Z" fill="var(--fill-0, white)"/>
<path id="Vector_2" d="M98.1179 12.4833H95.1349V25.9717H89.5904V12.4833H87.5801V7.87903H89.5904V7.36025C89.5904 5.13379 90.2283 3.44773 91.5034 2.30206C92.7785 1.13479 94.6485 0.551157 97.1128 0.551157C97.5238 0.551157 97.8261 0.561965 98.0207 0.583581V5.28509C96.9612 5.22025 96.2154 5.37156 95.7834 5.73903C95.3513 6.10651 95.1349 6.7658 95.1349 7.71691V7.87903H98.1179V12.4833Z" fill="var(--fill-0, white)"/>
<path id="Vector_3" d="M80.6435 5.99848C79.6707 5.99848 78.871 5.71747 78.2441 5.15545C77.6389 4.57182 77.3362 3.85848 77.3362 3.01545C77.3362 2.15081 77.6389 1.43747 78.2441 0.875455C78.871 0.291819 79.6707 -2.98023e-08 80.6435 -2.98023e-08C81.5945 -2.98023e-08 82.3727 0.291819 82.9782 0.875455C83.6048 1.43747 83.9186 2.15081 83.9186 3.01545C83.9186 3.85848 83.6048 4.57182 82.9782 5.15545C82.3727 5.71747 81.5945 5.99848 80.6435 5.99848ZM83.3998 7.87909V25.9718H77.855V7.87909H83.3998Z" fill="var(--fill-0, white)"/>
<path id="Vector_4" d="M66.3263 21.6918H73.5893V25.9718H60.7817V3.20997H66.3263V21.6918Z" fill="var(--fill-0, white)"/>
<path id="Vector_5" d="M39.7708 21.4H47.6174V25.9718H33.5777V21.5621L41.1002 12.4509H33.6426V7.87907H47.4553V12.2888L39.7708 21.4Z" fill="var(--fill-0, white)"/>
<path id="Vector_6" d="M26.1872 5.99848C25.2145 5.99848 24.4147 5.71747 23.7878 5.15545C23.1826 4.57182 22.8799 3.85848 22.8799 3.01545C22.8799 2.15081 23.1826 1.43747 23.7878 0.875455C24.4147 0.291819 25.2145 -2.98023e-08 26.1872 -2.98023e-08C27.1384 -2.98023e-08 27.9165 0.291819 28.5217 0.875455C29.1487 1.43747 29.462 2.15081 29.462 3.01545C29.462 3.85848 29.1487 4.57182 28.5217 5.15545C27.9165 5.71747 27.1384 5.99848 26.1872 5.99848ZM28.9433 7.87909V25.9718H23.3987V7.87909H28.9433Z" fill="var(--fill-0, white)"/>
<path id="Vector_7" d="M14.1845 14.2991C15.5031 14.58 16.5623 15.2394 17.3621 16.277C18.1619 17.2929 18.5618 18.4602 18.5618 19.7788C18.5618 21.681 17.8917 23.1941 16.5515 24.3182C15.2329 25.4206 13.3847 25.9718 11.007 25.9718H0.404226V3.20997H10.6503C12.9632 3.20997 14.7682 3.73956 16.0652 4.79876C17.3837 5.85795 18.043 7.29542 18.043 9.11121C18.043 10.4514 17.6864 11.5646 16.973 12.4509C16.2813 13.3371 15.3518 13.9532 14.1845 14.2991ZM5.94877 12.4185H9.5803C10.4882 12.4185 11.1799 12.2239 11.6555 11.8348C12.1526 11.4241 12.4012 10.8297 12.4012 10.0515C12.4012 9.27333 12.1526 8.67883 11.6555 8.26818C11.1799 7.85745 10.4882 7.65209 9.5803 7.65209H5.94877V12.4185ZM10.0342 21.4973C10.9637 21.4973 11.677 21.2919 12.1742 20.8812C12.693 20.4488 12.9524 19.8328 12.9524 19.033C12.9524 18.2332 12.6822 17.6064 12.1418 17.1524C11.623 16.6985 10.8988 16.4715 9.96939 16.4715H5.94877V21.4973H10.0342Z" fill="var(--fill-0, white)"/>
</g>
<defs>
<clipPath id="clip0_13_3">
<rect width="120" height="26.75" fill="white"/>
</clipPath>
</defs>
</svg>
