<svg preserveAspectRatio="none" width="100%" height="100%" overflow="visible" style="display: block;" viewBox="0 0 528 353.1" fill="none" xmlns="http://www.w3.org/2000/svg">
<g id="Group">
<path id="Vector" d="M528 0H0V330H528V0Z" fill="var(--fill-0, white)"/>
<path id="Vector_2" d="M53.625 99H18.975C13.5074 99 9.075 103.432 9.075 108.9V132C9.075 137.468 13.5074 141.9 18.975 141.9H53.625C59.0926 141.9 63.525 137.468 63.525 132V108.9C63.525 103.432 59.0926 99 53.625 99Z" fill="var(--fill-0, #FFA76C)"/>
<path id="Vector_3" d="M123.75 169.125H73.425C67.9574 169.125 63.525 173.557 63.525 179.025V235.95C63.525 241.418 67.9574 245.85 73.425 245.85H123.75C129.218 245.85 133.65 241.418 133.65 235.95V179.025C133.65 173.557 129.218 169.125 123.75 169.125Z" fill="var(--fill-0, #808080)"/>
<path id="Vector_4" d="M483.45 132H416.625C411.157 132 406.725 136.432 406.725 141.9V199.65C406.725 205.118 411.157 209.55 416.625 209.55H483.45C488.918 209.55 493.35 205.118 493.35 199.65V141.9C493.35 136.432 488.918 132 483.45 132Z" fill="var(--fill-0, #FFA76C)"/>
<path id="Vector_5" d="M108.502 223.791C111.036 206.149 126.152 193.05 143.975 193.05C161.052 193.05 175.757 205.1 179.113 221.844L205.425 353.1H89.925L108.502 223.791Z" fill="var(--fill-0, #D9D9D9)"/>
<path id="Vector_6" d="M409.598 223.791C407.064 206.149 391.948 193.05 374.125 193.05C357.048 193.05 342.343 205.1 338.987 221.844L312.675 353.1H428.175L409.598 223.791Z" fill="var(--fill-0, #0096DF)"/>
<path id="Vector_7" d="M139.425 184.8C163.118 184.8 182.325 165.593 182.325 141.9C182.325 118.207 163.118 99 139.425 99C115.732 99 96.525 118.207 96.525 141.9C96.525 165.593 115.732 184.8 139.425 184.8Z" fill="var(--fill-0, #FFE7C2)"/>
<path id="Vector_8" d="M378.675 184.8C354.982 184.8 335.775 165.593 335.775 141.9C335.775 118.207 354.982 99 378.675 99C402.368 99 421.575 118.207 421.575 141.9C421.575 165.593 402.368 184.8 378.675 184.8Z" fill="var(--fill-0, #FFE7C2)"/>
<path id="Vector_9" d="M174.344 117.327C174.344 117.327 158.382 128 138.692 141.167C119.002 154.334 103.04 165.007 103.04 165.007C89.8739 145.316 95.1621 118.681 114.852 105.515C134.543 92.348 161.178 97.6371 174.344 117.327Z" fill="var(--fill-0, #515151)"/>
<path id="Vector_10" d="M338.25 129.687C338.25 129.687 356.79 134.682 379.662 140.845C402.532 147.008 421.073 152.003 421.073 152.003C427.235 129.132 413.69 105.596 390.82 99.4331C367.948 93.2704 344.413 106.815 338.25 129.687Z" fill="var(--fill-0, #515151)"/>
<path id="Vector_11" d="M126.344 228.202C121.721 218.292 126.009 206.512 135.92 201.889L136.929 201.419C146.84 196.796 158.621 201.084 163.243 210.995L196.083 281.413L159.184 298.621L126.344 228.202Z" fill="var(--fill-0, #C2C2C2)"/>
<path id="Vector_12" d="M391.756 228.202C396.379 218.292 392.091 206.512 382.18 201.889L381.171 201.419C371.26 196.796 359.479 201.084 354.857 210.995L322.017 281.413L358.916 298.621L391.756 228.202Z" fill="var(--fill-0, #9CDFFF)"/>
<path id="Vector_13" d="M123.75 131.175L114.211 108.075H84.975L123.75 131.175Z" fill="var(--fill-0, #9CDFFF)"/>
<path id="Vector_14" d="M301.125 202.125L291.586 179.025H262.35L301.125 202.125Z" fill="var(--fill-0, #E1E1E1)"/>
<path id="Vector_15" d="M429 108.075L436.713 89.1H460.35L429 108.075Z" fill="var(--fill-0, #E1E1E1)"/>
<path id="Vector_16" d="M134.475 30.525H35.475C30.0074 30.525 25.575 34.9574 25.575 40.425V101.475C25.575 106.943 30.0074 111.375 35.475 111.375H134.475C139.943 111.375 144.375 106.943 144.375 101.475V40.425C144.375 34.9574 139.943 30.525 134.475 30.525Z" fill="var(--fill-0, #9CDFFF)"/>
<path id="Vector_17" d="M311.85 101.475H212.85C207.382 101.475 202.95 105.907 202.95 111.375V172.425C202.95 177.893 207.382 182.325 212.85 182.325H311.85C317.318 182.325 321.75 177.893 321.75 172.425V111.375C321.75 105.907 317.318 101.475 311.85 101.475Z" fill="var(--fill-0, #E1E1E1)"/>
<path id="Vector_18" d="M422.4 26.4H499.125C504.593 26.4 509.025 30.8324 509.025 36.3V82.5C509.025 87.9676 504.593 92.4 499.125 92.4H422.4C416.932 92.4 412.5 87.9676 412.5 82.5V36.3C412.5 30.8324 416.932 26.4 422.4 26.4Z" fill="var(--fill-0, #E1E1E1)"/>
<path id="Vector_19" d="M432.3 230.587L420.75 131.587L393.112 140.662V230.587H432.3Z" fill="var(--fill-0, #515151)"/>
</g>
</svg>
