<svg preserveAspectRatio="none" width="100%" height="100%" overflow="visible" style="display: block;" viewBox="0 0 528 330" fill="none" xmlns="http://www.w3.org/2000/svg">
<g id="Image">
<g clip-path="url(#clip0_64_6)">
<path id="Vector" d="M528 0H0V330H528V0Z" fill="var(--fill-0, white)"/>
<path id="Vector_2" d="M458.7 57.75H392.7C387.232 57.75 382.8 62.1824 382.8 67.65V133.65C382.8 139.118 387.232 143.55 392.7 143.55H458.7C464.168 143.55 468.6 139.118 468.6 133.65V67.65C468.6 62.1824 464.168 57.75 458.7 57.75Z" fill="var(--fill-0, #32BF98)"/>
<path id="Vector_3" d="M132 61.875H33.825C28.3574 61.875 23.925 66.3074 23.925 71.775V169.95C23.925 175.418 28.3574 179.85 33.825 179.85H132C137.468 179.85 141.9 175.418 141.9 169.95V71.775C141.9 66.3074 137.468 61.875 132 61.875Z" fill="var(--fill-0, #9CDFFF)"/>
<path id="Vector_4" d="M420.75 90.75H106.425C103.691 90.75 101.475 92.9662 101.475 95.7V303.6C101.475 306.334 103.691 308.55 106.425 308.55H420.75C423.484 308.55 425.7 306.334 425.7 303.6V95.7C425.7 92.9662 423.484 90.75 420.75 90.75Z" fill="var(--fill-0, #D9D9D9)"/>
<path id="Vector_5" d="M461.175 308.55H66C64.1775 308.55 62.7 310.027 62.7 311.85V318.45C62.7 320.273 64.1775 321.75 66 321.75H461.175C462.998 321.75 464.475 320.273 464.475 318.45V311.85C464.475 310.027 462.998 308.55 461.175 308.55Z" fill="var(--fill-0, #D9D9D9)"/>
<path id="Vector_6" d="M413.325 98.175H113.85C111.572 98.175 109.725 100.022 109.725 102.3V297C109.725 299.278 111.572 301.125 113.85 301.125H413.325C415.603 301.125 417.45 299.278 417.45 297V102.3C417.45 100.022 415.603 98.175 413.325 98.175Z" fill="var(--fill-0, white)"/>
<path id="Vector_7" d="M413.325 98.175H113.85C111.572 98.175 109.725 100.022 109.725 102.3V297C109.725 299.278 111.572 301.125 113.85 301.125H413.325C415.603 301.125 417.45 299.278 417.45 297V102.3C417.45 100.022 415.603 98.175 413.325 98.175Z" fill="var(--fill-0, white)"/>
<path id="Vector_8" d="M118.8 308.55H419.925" stroke="var(--stroke-0, #B3B3B3)" stroke-width="0.825"/>
<path id="Vector_9" d="M282.975 308.55H244.2V315.15H282.975V308.55Z" fill="var(--fill-0, #B3B3B3)"/>
<path id="Vector_10" d="M146.438 161.7C158.967 161.7 169.125 151.542 169.125 139.012C169.125 126.483 158.967 116.325 146.438 116.325C133.908 116.325 123.75 126.483 123.75 139.012C123.75 151.542 133.908 161.7 146.438 161.7Z" fill="var(--fill-0, #0096DF)"/>
<path id="Vector_11" d="M397.65 143.55H185.625C183.802 143.55 182.325 145.027 182.325 146.85V170.775C182.325 172.598 183.802 174.075 185.625 174.075H397.65C399.473 174.075 400.95 172.598 400.95 170.775V146.85C400.95 145.027 399.473 143.55 397.65 143.55Z" fill="var(--fill-0, #EDEDED)"/>
<path id="Vector_12" d="M397.65 179.85H185.625C183.802 179.85 182.325 181.327 182.325 183.15V207.075C182.325 208.898 183.802 210.375 185.625 210.375H397.65C399.473 210.375 400.95 208.898 400.95 207.075V183.15C400.95 181.327 399.473 179.85 397.65 179.85Z" fill="var(--fill-0, #EDEDED)"/>
<path id="Vector_13" d="M397.65 216.15H185.625C183.802 216.15 182.325 217.627 182.325 219.45V243.375C182.325 245.198 183.802 246.675 185.625 246.675H397.65C399.473 246.675 400.95 245.198 400.95 243.375V219.45C400.95 217.627 399.473 216.15 397.65 216.15Z" fill="var(--fill-0, #EDEDED)"/>
<path id="Vector_14" d="M397.65 252.45H185.625C183.802 252.45 182.325 253.927 182.325 255.75V279.675C182.325 281.498 183.802 282.975 185.625 282.975H397.65C399.473 282.975 400.95 281.498 400.95 279.675V255.75C400.95 253.927 399.473 252.45 397.65 252.45Z" fill="var(--fill-0, #EDEDED)"/>
<path id="Vector_15" d="M162.525 170.775H130.35C126.705 170.775 123.75 173.73 123.75 177.375V276.375C123.75 280.02 126.705 282.975 130.35 282.975H162.525C166.17 282.975 169.125 280.02 169.125 276.375V177.375C169.125 173.73 166.17 170.775 162.525 170.775Z" fill="var(--fill-0, #D9D9D9)"/>
<path id="Vector_16" d="M123.75 193.875H169.125" stroke="var(--stroke-0, white)" stroke-width="0.825"/>
<path id="Vector_17" d="M123.75 215.875H169.125" stroke="var(--stroke-0, white)" stroke-width="0.825"/>
<path id="Vector_18" d="M123.75 237.875H169.125" stroke="var(--stroke-0, white)" stroke-width="0.825"/>
<path id="Vector_19" d="M123.75 259.875H169.125" stroke="var(--stroke-0, white)" stroke-width="0.825"/>
<path id="Vector_20" d="M496.65 109.725H466.95C461.482 109.725 457.05 114.157 457.05 119.625V149.325C457.05 154.793 461.482 159.225 466.95 159.225H496.65C502.118 159.225 506.55 154.793 506.55 149.325V119.625C506.55 114.157 502.118 109.725 496.65 109.725Z" fill="var(--fill-0, #FFA76C)"/>
<path id="Vector_21" d="M149.325 23.1H119.625C114.157 23.1 109.725 27.5324 109.725 33V62.7C109.725 68.1676 114.157 72.6 119.625 72.6H149.325C154.793 72.6 159.225 68.1676 159.225 62.7V33C159.225 27.5324 154.793 23.1 149.325 23.1Z" fill="var(--fill-0, #FFA76C)"/>
</g>
</g>
<defs>
<clipPath id="clip0_64_6">
<path d="M0 4C0 1.79086 1.79086 0 4 0H524C526.209 0 528 1.79086 528 4V326C528 328.209 526.209 330 524 330H4C1.79086 330 0 328.209 0 326V4Z" fill="white"/>
</clipPath>
</defs>
</svg>
