<svg preserveAspectRatio="none" width="100%" height="100%" overflow="visible" style="display: block;" viewBox="0 0 528 330" fill="none" xmlns="http://www.w3.org/2000/svg">
<g id="Image">
<g clip-path="url(#clip0_64_29)">
<path id="Vector" d="M528 0H0V330H528V0Z" fill="var(--fill-0, white)"/>
<path id="Vector_2" d="M272.25 35.475H60.225C58.4025 35.475 56.925 36.9525 56.925 38.775V46.2634C56.925 48.086 58.4025 49.5634 60.225 49.5634H272.25C274.073 49.5634 275.55 48.086 275.55 46.2634V38.775C275.55 36.9525 274.073 35.475 272.25 35.475Z" fill="var(--fill-0, #EDEDED)"/>
<path id="Vector_3" d="M272.25 55.3384H60.225C58.4025 55.3384 56.925 56.8159 56.925 58.6384V66.1269C56.925 67.9494 58.4025 69.4269 60.225 69.4269H272.25C274.073 69.4269 275.55 67.9494 275.55 66.1269V58.6384C275.55 56.8159 274.073 55.3384 272.25 55.3384Z" fill="var(--fill-0, #EDEDED)"/>
<path id="Vector_4" d="M272.25 75.2019H60.225C58.4025 75.2019 56.925 76.6793 56.925 78.5019V85.9903C56.925 87.8129 58.4025 89.2903 60.225 89.2903H272.25C274.073 89.2903 275.55 87.8129 275.55 85.9903V78.5019C275.55 76.6793 274.073 75.2019 272.25 75.2019Z" fill="var(--fill-0, #EDEDED)"/>
<path id="Vector_5" d="M272.25 95.0656H60.225C58.4025 95.0656 56.925 96.543 56.925 98.3656V105.854C56.925 107.677 58.4025 109.154 60.225 109.154H272.25C274.073 109.154 275.55 107.677 275.55 105.854V98.3656C275.55 96.543 274.073 95.0656 272.25 95.0656Z" fill="var(--fill-0, #EDEDED)"/>
<path id="Vector_6" d="M484.275 220.275H272.25C270.427 220.275 268.95 221.752 268.95 223.575V231.063C268.95 232.886 270.427 234.363 272.25 234.363H484.275C486.098 234.363 487.575 232.886 487.575 231.063V223.575C487.575 221.752 486.098 220.275 484.275 220.275Z" fill="var(--fill-0, #EDEDED)"/>
<path id="Vector_7" d="M484.275 240.139H272.25C270.427 240.139 268.95 241.616 268.95 243.439V250.927C268.95 252.75 270.427 254.227 272.25 254.227H484.275C486.098 254.227 487.575 252.75 487.575 250.927V243.439C487.575 241.616 486.098 240.139 484.275 240.139Z" fill="var(--fill-0, #EDEDED)"/>
<path id="Vector_8" d="M484.275 260.002H272.25C270.427 260.002 268.95 261.48 268.95 263.302V270.79C268.95 272.613 270.427 274.09 272.25 274.09H484.275C486.098 274.09 487.575 272.613 487.575 270.79V263.302C487.575 261.48 486.098 260.002 484.275 260.002Z" fill="var(--fill-0, #EDEDED)"/>
<path id="Vector_9" d="M484.275 279.866H272.25C270.427 279.866 268.95 281.343 268.95 283.166V290.654C268.95 292.477 270.427 293.954 272.25 293.954H484.275C486.098 293.954 487.575 292.477 487.575 290.654V283.166C487.575 281.343 486.098 279.866 484.275 279.866Z" fill="var(--fill-0, #EDEDED)"/>
<path id="Vector_10" d="M363.498 174.9H163.677C161.939 174.9 160.53 176.309 160.53 178.047V310.212C160.53 311.95 161.939 313.359 163.677 313.359H363.498C365.236 313.359 366.645 311.95 366.645 310.212V178.047C366.645 176.309 365.236 174.9 363.498 174.9Z" fill="var(--fill-0, #878787)"/>
<path id="Vector_11" d="M389.197 313.359H137.979C136.82 313.359 135.881 314.298 135.881 315.457V319.652C135.881 320.811 136.82 321.75 137.979 321.75H389.197C390.356 321.75 391.295 320.811 391.295 319.652V315.457C391.295 314.298 390.356 313.359 389.197 313.359Z" fill="var(--fill-0, #878787)"/>
<path id="Vector_12" d="M358.777 179.62H168.397C166.949 179.62 165.775 180.794 165.775 182.242V306.016C165.775 307.464 166.949 308.638 168.397 308.638H358.777C360.225 308.638 361.399 307.464 361.399 306.016V182.242C361.399 180.794 360.225 179.62 358.777 179.62Z" fill="var(--fill-0, white)"/>
<path id="Vector_13" d="M358.777 179.62H168.397C166.949 179.62 165.775 180.794 165.775 182.242V306.016C165.775 307.464 166.949 308.638 168.397 308.638H358.777C360.225 308.638 361.399 307.464 361.399 306.016V182.242C361.399 180.794 360.225 179.62 358.777 179.62Z" fill="var(--fill-0, white)"/>
<path id="Vector_14" d="M171.544 313.359H362.974" stroke="var(--stroke-0, #3F3F3F)" stroke-width="0.524464"/>
<path id="Vector_15" d="M275.913 313.359H251.263V317.555H275.913V313.359Z" fill="var(--fill-0, #3F3F3F)"/>
<path id="Vector_16" d="M198.825 85.8H120.45C114.982 85.8 110.55 90.2324 110.55 95.7V145.2C110.55 150.668 114.982 155.1 120.45 155.1H198.825C204.293 155.1 208.725 150.668 208.725 145.2V95.7C208.725 90.2324 204.293 85.8 198.825 85.8Z" fill="var(--fill-0, #FFA76C)"/>
<path id="Vector_17" d="M320.571 236.469H200.469C197.283 236.469 194.7 239.052 194.7 242.238C194.7 245.424 197.283 248.007 200.469 248.007H320.571C323.757 248.007 326.34 245.424 326.34 242.238C326.34 239.052 323.757 236.469 320.571 236.469Z" fill="var(--fill-0, #EDEDED)"/>
<path id="Vector_18" d="M310.613 212.85H217.388C212.603 212.85 208.725 216.728 208.725 221.513C208.725 226.297 212.603 230.175 217.388 230.175H310.613C315.397 230.175 319.275 226.297 319.275 221.513C319.275 216.728 315.397 212.85 310.613 212.85Z" fill="var(--fill-0, #444444)"/>
<path id="Vector_19" d="M340.433 244.268C342.276 242.424 342.276 239.436 340.433 237.592C338.589 235.749 335.601 235.749 333.757 237.592C331.914 239.436 331.914 242.424 333.757 244.268C335.601 246.111 338.589 246.111 340.433 244.268Z" stroke="var(--stroke-0, black)" stroke-width="1.57339" stroke-linecap="round" stroke-linejoin="round"/>
<path id="Vector_20" d="M340.433 244.268L343.028 246.863" stroke="var(--stroke-0, black)" stroke-width="1.57339" stroke-linecap="round" stroke-linejoin="round"/>
<path id="Vector_21" d="M495.825 67.65H329.175C323.707 67.65 319.275 72.0824 319.275 77.55V191.4C319.275 196.868 323.707 201.3 329.175 201.3H495.825C501.293 201.3 505.725 196.868 505.725 191.4V77.55C505.725 72.0824 501.293 67.65 495.825 67.65Z" fill="var(--fill-0, #B2B2B2)"/>
<path id="Vector_22" d="M349.8 223.575L363.805 189.75H406.725L349.8 223.575Z" fill="var(--fill-0, #B2B2B2)"/>
<path id="Vector_23" d="M153.45 254.925L140.663 223.575H101.475L153.45 254.925Z" fill="var(--fill-0, #9CDFFF)"/>
<path id="Vector_24" d="M171.6 120.45H32.175C26.7074 120.45 22.275 124.882 22.275 130.35V218.625C22.275 224.093 26.7074 228.525 32.175 228.525H171.6C177.068 228.525 181.5 224.093 181.5 218.625V130.35C181.5 124.882 177.068 120.45 171.6 120.45Z" fill="var(--fill-0, #9CDFFF)"/>
</g>
</g>
<defs>
<clipPath id="clip0_64_29">
<path d="M0 4C0 1.79086 1.79086 0 4 0H524C526.209 0 528 1.79086 528 4V326C528 328.209 526.209 330 524 330H4C1.79086 330 0 328.209 0 326V4Z" fill="white"/>
</clipPath>
</defs>
</svg>
